HIERARCHY
ROOT root
{
	OFFSET	0	13.1	24.9
	CHANNELS 6  Xposition Yposition Zposition Xrotation Yrotation Zrotation
	JOINT spine_1
	{
		OFFSET	0	9.99999	0
		CHANNELS 3  Xrotation Yrotation Zrotation
		JOINT spine_2
		{
			OFFSET	0	112	-10
			CHANNELS 3  Xrotation Yrotation Zrotation
			JOINT spine_3
			{
				OFFSET	0	206.5	19.3
				CHANNELS 3  Xrotation Yrotation Zrotation
				JOINT spine_4
				{
					OFFSET	0	110.4	14.6
					CHANNELS 3  Xrotation Yrotation Zrotation
					JOINT neck_1
					{
						OFFSET	0	71.8	-50.3
						CHANNELS 3  Xrotation Yrotation Zrotation
						JOINT neck_2
						{
							OFFSET	0	86.2	-25.8
							CHANNELS 3  Xrotation Yrotation Zrotation
							JOINT head_ee
							{
								OFFSET	0	179.8	-8.7
								CHANNELS 3  Xrotation Yrotation Zrotation
								End Site
								{
									OFFSET	1	0	0
								}
							}
						}
					}
					JOINT left_clavicle
					{
						OFFSET	-43.2	22.4	-70.8
						CHANNELS 3  Xrotation Yrotation Zrotation
						JOINT left_shoulder
						{
							OFFSET	-93.9	-5.79999	48.7
							CHANNELS 3  Xrotation Yrotation Zrotation
							JOINT left_elbow
							{
								OFFSET	-291.4	-30.8	15.2
								CHANNELS 3  Xrotation Yrotation Zrotation
								JOINT left_lowarm_twist
								{
									OFFSET	-110.7	-3.89999	13.6
									CHANNELS 3  Xrotation Yrotation Zrotation
									JOINT left_hand
									{
										OFFSET	-110.7	-3.89999	13.6
										CHANNELS 3  Xrotation Yrotation Zrotation
										JOINT left_ee
										{
											OFFSET	-80.8	-5.10001	12.1
											CHANNELS 3  Xrotation Yrotation Zrotation
											End Site
											{
												OFFSET	1	0	0
											}
										}
									}
								}
							}
						}
					}
					JOINT right_clavicle
					{
						OFFSET	43.2	22.4	-70.8
						CHANNELS 3  Xrotation Yrotation Zrotation
						JOINT right_shoulder
						{
							OFFSET	93.9	-5.79999	48.7
							CHANNELS 3  Xrotation Yrotation Zrotation
							JOINT right_elbow
							{
								OFFSET	291.4	-30.8	15.2
								CHANNELS 3  Xrotation Yrotation Zrotation
								JOINT right_lowarm_twist
								{
									OFFSET	110.7	-3.89999	13.6
									CHANNELS 3  Xrotation Yrotation Zrotation
									JOINT right_hand
									{
										OFFSET	110.7	-3.89999	13.6
										CHANNELS 3  Xrotation Yrotation Zrotation
										JOINT right_ee
										{
											OFFSET	80.8	-5.10001	12.1
											CHANNELS 3  Xrotation Yrotation Zrotation
											End Site
											{
												OFFSET	1	0	0
											}
										}
									}
								}
							}
						}
					}
				}
			}
		}
	}
	JOINT left_hip
	{
		OFFSET	-82.8	-127.5	0.300001
		CHANNELS 3  Xrotation Yrotation Zrotation
		JOINT left_knee
		{
			OFFSET	-28.2	-396.7	2.2
			CHANNELS 3  Xrotation Yrotation Zrotation
			JOINT left_ankle
			{
				OFFSET	-11.7	-411.3	35.4
				CHANNELS 3  Xrotation Yrotation Zrotation
				JOINT left_toes
				{
					OFFSET	0	-60	-88.6
					CHANNELS 3  Xrotation Yrotation Zrotation
					JOINT left_foot_ee
					{
						OFFSET	-22.5	-16.5	-42.2
						CHANNELS 3  Xrotation Yrotation Zrotation
						End Site
						{
							OFFSET	1	0	0
						}
					}
				}
			}
		}
	}
	JOINT right_hip
	{
		OFFSET	82.8	-127.5	0.300001
		CHANNELS 3  Xrotation Yrotation Zrotation
		JOINT right_knee
		{
			OFFSET	28.2	-396.7	2.2
			CHANNELS 3  Xrotation Yrotation Zrotation
			JOINT right_ankle
			{
				OFFSET	11.7	-411.3	35.4
				CHANNELS 3  Xrotation Yrotation Zrotation
				JOINT right_toes
				{
					OFFSET	0	-60	-88.6
					CHANNELS 3  Xrotation Yrotation Zrotation
					JOINT right_foot_ee
					{
						OFFSET	22.5	-16.5	-42.2
						CHANNELS 3  Xrotation Yrotation Zrotation
						End Site
						{
							OFFSET	1	0	0
						}
					}
				}
			}
		}
	}
}
MOTION
Frames: 10
Frame Time: 0.02
794.25382498 645.265 -1468.00749157 -173.577353923 64.6129644208 179.637503376 -1.24237 -0.147522 -1.52805 -1.24107 -0.0500013 -1.53434 -1.23869 0.306253 -1.5043 -1.24185 0.064862 -1.53378 -12.6317 10.0906 7.2864 -12.6099 14.5767 9.89912 -0.0 0.0 -0.0 7.86486 14.3343 14.6249 -18.7516 -27.1732 52.7463 0.469349 -13.089 0.0538454 -35.6418 -2.50004 3.7304 1.36905 8.86832 12.6173 -0.0 0.0 -0.0 8.22304 -3.0011 -15.9518 -9.17956 27.2525 -53.2027 3.16244 57.436 -1.73298 63.4656 2.09199 7.41817 5.12387 -26.6123 -43.9042 0.0 0.0 0.0 3.26837 -9.24393 -2.33332 7.26931 -0.366824 -1.05399 20.2199 17.9781 -2.80819 -25.3935 0.0 0.0 -0.0 0.0 -0.0 23.0466 19.783 -8.73053 -35.0368 0.181567 -5.29111 24.5221 -22.9343 3.41047 11.5631 -0.0 -0.0 0.0 0.0 0.0 
790.204689155 644.95 -1458.56167804 -174.172677757 62.8765967153 -179.429713945 -1.41297 -0.163209 -1.58838 -1.41157 -0.0618188 -1.59555 -1.40866 0.313562 -1.56566 -1.41207 0.0623929 -1.59552 -13.6161 10.5577 7.70332 -13.6143 15.3884 10.5646 -0.0 0.0 -0.0 7.64871 14.3357 14.2571 -18.6664 -27.4599 53.1184 0.651737 -17.8928 0.102601 -35.478 -2.48359 3.71733 0.863359 13.6442 11.074 -0.0 0.0 -0.0 7.96644 -3.48231 -15.4344 -8.52098 26.4364 -53.5905 3.1462 57.3022 -1.71931 62.6237 2.013 7.34456 5.41547 -26.9362 -46.4173 0.0 0.0 0.0 3.89928 -9.80829 -2.74905 5.72483 -0.277713 -0.834004 20.6034 17.5782 -2.85292 -25.4328 0.0 0.0 -0.0 0.0 -0.0 23.8716 20.1379 -8.28325 -30.5018 -0.0245213 -4.62596 18.7772 -19.3634 2.63672 8.44093 -0.0 -0.0 0.0 0.0 0.0 
790.046889014 648.45 -1453.62912934 -172.444616602 62.0324787832 178.887254662 -1.36611 -0.0380349 -1.64855 -1.3646 0.0669294 -1.64763 -1.36543 0.449784 -1.58648 -1.36889 0.19362 -1.63759 -12.7417 10.7959 6.57661 -12.7859 16.3906 9.45651 -0.0 0.0 -0.0 7.54381 14.3981 14.0744 -18.2219 -27.7458 53.5561 0.854572 -22.9442 0.173434 -34.9544 -2.43124 3.67524 0.503333 13.2003 8.61415 -0.0 0.0 -0.0 7.96165 -2.46293 -15.4559 -8.0266 25.3006 -53.5844 3.0254 56.2753 -1.61823 63.4333 2.08894 7.41536 5.44764 -27.591 -46.7136 0.0 0.0 0.0 5.49156 -8.57742 -2.69317 3.45335 -0.157536 -0.506376 18.9454 18.3088 -2.64848 -25.3993 0.0 0.0 -0.0 0.0 -0.0 23.065 20.5003 -6.73903 -21.6761 -0.271957 -3.29545 10.9421 -19.7827 1.5845 6.20445 -0.0 -0.0 0.0 0.0 0.0 
781.970869351 648.599 -1446.3804065 -173.371690111 60.2396270809 179.572751838 -1.48932 -0.0642393 -1.60042 -1.48789 0.0377167 -1.60127 -1.48783 0.413844 -1.54734 -1.49114 0.16431 -1.59326 -12.3045 11.4237 8.36681 -12.2594 16.3673 11.2674 -0.0 0.0 -0.0 7.78151 14.5606 14.4649 -17.7478 -28.2143 53.5962 0.892607 -23.8534 0.18854 -35.6648 -2.50235 3.73224 0.683246 14.5358 10.2544 -0.0 0.0 -0.0 7.65516 -1.69872 -14.8711 -8.99296 25.3995 -53.5516 2.84902 54.6699 -1.47292 63.6248 2.10705 7.43195 5.80693 -28.3184 -49.9888 0.0 0.0 0.0 4.42068 -11.5357 -2.38644 2.12713 -0.0934208 -0.313014 18.9454 16.003 -2.62991 -25.0477 0.0 0.0 -0.0 0.0 -0.0 21.5806 21.6994 -6.18029 -13.314 -0.315369 -2.0143 6.99053 -20.2845 1.02675 4.51986 -0.0 -0.0 0.0 0.0 0.0 
776.670569654 647.987 -1453.81014428 -171.090832835 60.0744087151 177.537241854 -1.33396 -0.154535 -1.58971 -1.33255 -0.0530777 -1.59632 -1.32992 0.320094 -1.56481 -1.33333 0.0689776 -1.59571 -11.7574 10.8626 6.67776 -11.7694 16.2804 9.43206 -0.0 0.0 -0.0 7.12953 15.5932 13.2956 -18.0833 -28.9178 53.4909 1.27443 -32.2634 0.368623 -35.7541 -2.51134 3.73934 0.552235 15.968 9.95634 -0.0 0.0 -0.0 8.01124 0.0036501 -15.6094 -8.23018 24.0983 -53.4779 2.6065 52.234 -1.27804 66.396 2.37522 7.6652 5.86277 -27.3792 -50.5481 0.0 0.0 0.0 7.25537 -10.8921 -2.49391 -1.33179 0.0525413 0.197623 19.499 15.8371 -2.69915 -23.2746 0.0 0.0 -0.0 0.0 -0.0 20.808 20.9977 -4.47993 -2.92778 -0.109426 -0.435947 1.43099 -13.9529 0.20968 -0.392862 0.0 0.0 0.0 0.0 0.0 
764.736977493 646.973 -1454.53916189 -170.276064958 58.4125976076 176.9908218 -1.39228 -0.251583 -1.43736 -1.39115 -0.15962 -1.45045 -1.38604 0.183886 -1.44758 -1.38896 -0.0470144 -1.45845 -8.49221 11.6486 7.52173 -8.39173 16.5574 10.016 -0.0 0.0 -0.0 7.01715 15.8631 13.0919 -18.5153 -30.3756 52.717 1.42725 -35.2589 0.453579 -35.8175 -2.51774 3.74438 -0.00575174 17.2555 6.98573 -0.0 0.0 -0.0 8.13476 0.0443994 -15.8582 -8.53874 23.3385 -54.1637 2.45153 50.5228 -1.15695 66.6871 2.40405 7.68895 5.86495 -27.8592 -50.5588 0.0 0.0 0.0 8.32932 -11.4656 -2.9384 -4.12425 0.147701 0.615578 20.9727 16.3833 -2.88878 -21.0635 0.0 0.0 -0.0 0.0 -0.0 18.1104 20.5524 -2.8097 4.79566 0.22698 0.70055 -5.72477 -9.07209 -0.847824 -1.1019 0.0 0.0 0.0 0.0 0.0 
753.966244509 647.3 -1459.41261957 -170.556347975 57.1256844562 177.494277421 -1.31172 -0.207113 -1.41065 -1.31062 -0.116939 -1.42096 -1.30675 0.216551 -1.40923 -1.30953 -0.0087042 -1.42574 -7.84987 11.6822 6.29085 -7.78227 17.3589 8.74004 -0.0 0.0 -0.0 7.31851 16.4968 13.5408 -16.8533 -28.5153 53.176 1.64094 -39.1037 0.582795 -36.7104 -2.6083 3.81453 -0.113372 17.9437 6.59547 -0.0 0.0 -0.0 8.54767 0.937248 -16.7111 -8.05868 19.9329 -54.7162 2.13427 46.5883 -0.918989 70.4113 2.78316 7.97966 5.89764 -26.4204 -50.895 0.0 0.0 0.0 8.60881 -13.0121 -3.67861 -5.58192 0.189246 0.83542 21.3824 14.664 -2.92666 -21.1523 0.0 0.0 -0.0 0.0 -0.0 16.777 20.9061 -2.88753 5.12008 0.244447 0.747237 -2.6249 -6.10886 -0.386737 -1.30167 0.0 0.0 0.0 0.0 0.0 
744.991457029 647.371 -1460.91748716 -170.297163089 56.600950715 177.255097658 -1.33674 -0.250025 -1.41109 -1.33565 -0.159736 -1.42413 -1.33066 0.176244 -1.42219 -1.33348 -0.0505516 -1.43217 -6.88158 11.8927 6.53477 -6.77965 17.3822 8.9021 -0.0 0.0 -0.0 7.33966 16.6434 13.5639 -16.7409 -30.153 52.8919 1.60843 -38.5439 0.562413 -37.3541 -2.67427 3.86423 -0.385596 18.7176 5.25151 -0.0 0.0 -0.0 8.63112 1.16824 -16.886 -8.34467 18.6389 -55.4704 2.00312 44.7731 -0.825144 70.2664 2.76806 7.96881 5.80871 -26.0137 -50.0209 0.0 0.0 0.0 8.80971 -15.2606 -3.90064 -7.4701 0.234718 1.1216 22.2538 14.8126 -3.0348 -20.0681 0.0 0.0 -0.0 0.0 -0.0 15.4732 20.8246 -2.59953 6.34229 0.312624 0.922234 -2.46097 -5.33773 -0.362695 -1.8457 0.0 0.0 0.0 0.0 0.0 
732.695501012 650.468 -1460.73432918 -170.720051139 55.1225205093 177.681581308 -1.3025 -0.2355 -1.32285 -1.30154 -0.150854 -1.33516 -1.29714 0.163383 -1.33368 -1.29962 -0.0492782 -1.34275 -6.72708 11.5965 6.2597 -6.63007 16.998 8.55163 -0.0 0.0 -0.0 7.37478 17.094 13.5852 -17.1452 -30.4091 52.4185 1.75427 -40.9874 0.655718 -37.8414 -2.72458 3.90136 -0.392766 17.8654 4.86478 -0.0 0.0 -0.0 8.50095 1.2718 -16.6224 -9.24421 16.6876 -56.5194 1.8993 43.2502 -0.753008 70.3434 2.77608 7.97458 5.49793 -26.0429 -47.1215 0.0 0.0 0.0 8.17892 -15.552 -4.38976 -7.12726 0.227163 1.06953 21.1781 13.6813 -2.89517 -19.9778 0.0 0.0 -0.0 0.0 -0.0 13.9173 19.9512 -3.2747 6.33403 0.31215 0.921056 -3.09755 -9.99364 -0.45657 -0.828635 0.0 0.0 0.0 0.0 0.0 
723.190698038 651.767 -1460.77214541 -170.765152431 54.3925771137 177.350308459 -1.30252 -0.234092 -1.24796 -1.30167 -0.154213 -1.26032 -1.29748 0.142737 -1.26167 -1.2997 -0.0582961 -1.26838 -6.63661 11.9563 6.56754 -6.52706 17.426 8.91718 -0.0 0.0 -0.0 7.93737 18.2542 14.3858 -16.7552 -30.2826 52.0672 1.74291 -40.8033 0.648284 -38.3075 -2.77299 3.93647 -0.489785 17.8051 4.2511 -0.0 0.0 -0.0 8.61651 1.15793 -16.8559 -9.56014 15.2297 -57.8022 1.73193 40.6243 -0.641122 72.6577 3.02071 8.14294 5.22537 -24.8182 -44.6451 0.0 0.0 0.0 8.03768 -16.7637 -4.58125 -8.22594 0.250272 1.23654 21.8231 12.3324 -2.96712 -19.1148 0.0 0.0 -0.0 0.0 -0.0 13.5367 19.9716 -2.69459 6.67473 0.331815 0.969585 -2.17942 -5.44682 -0.320972 -0.367496 0.0 0.0 0.0 0.0 0.0 
